<?xml version="1.0" ?><!DOCTYPE svg  PUBLIC '-//W3C//DTD SVG 1.1//EN'  'http://www.w3.org/Graphics/SVG/1.1/DTD/svg11.dtd'><svg width="512px" height="512px" viewBox="0 0 512 512" id="Layer_1" style="enable-background:new 0 0 512 512;" version="1.1" xml:space="preserve" xmlns="http://www.w3.org/2000/svg" xmlns:xlink="http://www.w3.org/1999/xlink"><style type="text/css">
	.st0{fill:none;stroke:#000000;stroke-width:2;}
	.st1{fill:none;stroke:#000000;stroke-width:16;}
</style><g><g id="XMLID_654_"><g id="XMLID_150_"><path class="st0" d="M3473.6,261.7" id="XMLID_994_"/><path class="st0" d="M3472.2,253h-6.3c0,0-2.9,0-2.9-2.9" id="XMLID_987_"/><line class="st0" id="XMLID_992_" x1="3489.1" x2="3507.1" y1="271" y2="271"/><line class="st0" id="XMLID_991_" x1="3489.1" x2="3489.1" y1="271" y2="289.1"/><line class="st0" id="XMLID_990_" x1="3489.1" x2="3501.9" y1="271" y2="283.8"/><line class="st0" id="XMLID_989_" x1="3489.1" x2="3498.4" y1="271" y2="255.6"/><path class="st0" d="M3489.2,271.1c-2.7,6.5-8.9,10.7-16.4,10.7c-2.2,0-4.3-0.4-6.3-1.1c-0.6-0.2-0.9-1-0.5-1.6      l3.7-4.9c0.5-0.7,1.6-0.5,1.7,0.4c1.7,8.7,9.7,15.1,19,14.4c8.6-0.6,15.6-7.4,16.6-15.9c1.2-10.9-7.3-20.1-17.9-20.1h-16.9      c0,0.5-0.1,1-0.1,1.4C3472.1,263.9,3480,270.3,3489.2,271.1" id="XMLID_988_"/><circle class="st0" cx="3486.3" cy="260.4" id="XMLID_985_" r="1.5"/></g><rect class="st0" height="64" id="XMLID_983_" width="64" x="3453" y="237.6"/></g><text id="XMLID_925_" style="font-family:'MyriadPro-Regular'; font-size:10px;" transform="matrix(1 0 0 1 3457.5781 319.1285)"/><g id="XMLID_2_"><line class="st1" id="XMLID_5_" x1="126.6" x2="75" y1="385.4" y2="437"/><line class="st1" id="XMLID_4_" x1="437" x2="367" y1="75" y2="145"/><g id="XMLID_1_"><path d="M256,16c32.4,0,63.8,6.3,93.4,18.9c28.6,12.1,54.2,29.4,76.3,51.4c22,22,39.4,47.7,51.4,76.3      c12.5,29.6,18.9,61,18.9,93.4s-6.3,63.8-18.9,93.4c-12.1,28.6-29.4,54.2-51.4,76.3c-22,22-47.7,39.4-76.3,51.4      c-29.6,12.5-61,18.9-93.4,18.9s-63.8-6.3-93.4-18.9c-28.6-12.1-54.2-29.4-76.3-51.4c-22-22-39.4-47.7-51.4-76.3      C22.3,319.8,16,288.4,16,256s6.3-63.8,18.9-93.4c12.1-28.6,29.4-54.2,51.4-76.3c22-22,47.7-39.4,76.3-51.4      C192.2,22.3,223.6,16,256,16 M256,0C114.6,0,0,114.6,0,256s114.6,256,256,256s256-114.6,256-256S397.4,0,256,0L256,0z" id="XMLID_14_"/></g><g id="XMLID_8_"><path class="st1" d="M174.1,214.8" id="XMLID_20_"/><path class="st1" d="M164.6,158.7h-40.7c0,0-18.9,0-18.9-18.9" id="XMLID_19_"/><line class="st1" id="XMLID_18_" x1="273.3" x2="389" y1="274.4" y2="274.4"/><line class="st1" id="XMLID_17_" x1="273.3" x2="273.3" y1="274.4" y2="390.2"/><line class="st1" id="XMLID_13_" x1="273.3" x2="355.1" y1="274.4" y2="356.2"/><line class="st1" id="XMLID_12_" x1="273.3" x2="333.1" y1="274.4" y2="175.4"/><path class="st1" d="M273.9,275c-17.6,41.5-57.4,68.7-105.3,68.7c-14.3,0-27.9-2.6-40.5-7.3      c-4.1-1.5-5.6-6.5-3-10l23.6-31.4c3.2-4.3,10.2-2.9,11.2,2.4C171,353,222.1,394.2,282,389.9c54.9-4,100.3-47.5,106.3-102.2      c7.7-69.8-46.7-128.9-115-128.9H164.6c-0.3,3.1-0.4,6.2-0.4,9.3C164.2,228.6,214.5,270.1,273.9,275" id="XMLID_11_"/><path class="st1" d="M245.4,206.3c0,5.4,4.4,9.9,9.8,9.9c5.4,0,9.9-4.4,9.9-9.9c0-5.4-4.4-9.8-9.9-9.8      C249.8,196.5,245.4,200.9,245.4,206.3z" id="XMLID_9_"/></g></g></g></svg>